<?xml version="1.0" standalone="no"?>
<!DOCTYPE svg PUBLIC "-//W3C//DTD SVG 20010904//EN"
 "http://www.w3.org/TR/2001/REC-SVG-20010904/DTD/svg10.dtd">
<svg version="1.0" xmlns="http://www.w3.org/2000/svg"
 width="500.000000pt" height="500.000000pt" viewBox="0 0 500.000000 500.000000"
 preserveAspectRatio="xMidYMid meet">
<metadata>
Created by potrace 1.14, written by Peter Selinger 2001-2017
</metadata>
<g transform="translate(0.000000,500.000000) scale(0.100000,-0.100000)"
fill="#000000" stroke="none">
<path d="M2260 4940 c-30 -4 -80 -11 -110 -14 -287 -36 -619 -154 -910 -324
-190 -112 -457 -338 -606 -512 -295 -345 -492 -783 -560 -1240 -3 -19 -7 -51
-10 -70 -3 -19 -7 -136 -9 -260 -2 -197 0 -244 21 -375 75 -473 251 -864 547
-1220 63 -75 260 -271 312 -310 22 -17 49 -38 60 -48 11 -11 72 -54 136 -96
254 -171 499 -279 794 -350 137 -34 184 -42 345 -60 75 -9 435 -6 500 3 19 3
51 8 70 10 304 41 622 152 890 309 92 54 212 133 247 163 12 11 37 30 55 44
173 132 388 371 533 593 177 272 322 663 360 972 4 28 9 61 12 75 9 42 11 452
3 505 -4 28 -10 73 -14 100 -3 28 -8 61 -11 75 -3 14 -8 41 -11 60 -13 73 -55
229 -87 325 -175 510 -509 941 -974 1253 -181 122 -421 234 -643 300 -58 17
-116 34 -130 37 -88 18 -233 44 -275 50 -75 9 -472 13 -535 5z m-560 -3584 c0
-2 -8 -10 -17 -17 -16 -13 -17 -12 -4 4 13 16 21 21 21 13z"/>
</g>
</svg>
